<?xml version="1.0" encoding="UTF-8"?>
<svg xmlns="http://www.w3.org/2000/svg" width="102.235" height="96" viewBox="0 0 102.235 96">
  <g transform="translate(1099.333 -3492)">
    <path d="M163.168,108.174l7.864-7.864a34.954,34.954,0,1,0-49.432.112l7.864,7.864C112.05,109.747,95.2,114.128,95.2,121.992c0,9.55,25.727,14.605,51.118,14.605s51.118-5.055,51.118-14.605c0-7.864-16.852-12.246-34.266-13.818ZM124.746,54.023a30.505,30.505,0,0,1,43.141,43.141l-21.571,21.571L124.746,97.164A30.514,30.514,0,0,1,124.746,54.023ZM146.316,132.1c-30.671,0-46.624-6.628-46.624-10.111,0-2.584,10-8.089,33.929-9.662l12.695,12.807,12.7-12.7c23.93,1.685,33.929,7.078,33.929,9.662,0,3.483-15.954,10-46.624,10Z" transform="translate(-1194.531 3451.403)" fill="#b14169"></path>
    <path d="M300.716,138.038a16.492,16.492,0,1,0-4.831,11.684A16.4,16.4,0,0,0,300.716,138.038Zm-25.053,8.538a11.972,11.972,0,0,1-3.483-8.538,12.167,12.167,0,0,1,3.483-8.538,11.972,11.972,0,0,1,8.538-3.483,12.167,12.167,0,0,1,8.538,3.483,11.972,11.972,0,0,1,3.483,8.538,12.021,12.021,0,0,1-20.559,8.538Z" transform="translate(-1332.417 3386.711)" fill="#b14169"></path>
  </g>
</svg>
